<svg id="visual" viewBox="0 0 960 300" width="960" height="300" xmlns="http://www.w3.org/2000/svg" xmlns:xlink="http://www.w3.org/1999/xlink" version="1.1"><rect x="0" y="0" width="960" height="300" fill="#001220"></rect><path d="M0 186L22.8 185C45.7 184 91.3 182 137 180.7C182.7 179.3 228.3 178.7 274 184.7C319.7 190.7 365.3 203.3 411.2 205.3C457 207.3 503 198.7 548.8 199.8C594.7 201 640.3 212 686 211.5C731.7 211 777.3 199 823 198.8C868.7 198.7 914.3 210.3 937.2 216.2L960 222L960 301L937.2 301C914.3 301 868.7 301 823 301C777.3 301 731.7 301 686 301C640.3 301 594.7 301 548.8 301C503 301 457 301 411.2 301C365.3 301 319.7 301 274 301C228.3 301 182.7 301 137 301C91.3 301 45.7 301 22.8 301L0 301Z" fill="#fa7268"></path><path d="M0 223L22.8 220.5C45.7 218 91.3 213 137 208.8C182.7 204.7 228.3 201.3 274 203.7C319.7 206 365.3 214 411.2 215.8C457 217.7 503 213.3 548.8 210.2C594.7 207 640.3 205 686 207.7C731.7 210.3 777.3 217.7 823 223.5C868.7 229.3 914.3 233.7 937.2 235.8L960 238L960 301L937.2 301C914.3 301 868.7 301 823 301C777.3 301 731.7 301 686 301C640.3 301 594.7 301 548.8 301C503 301 457 301 411.2 301C365.3 301 319.7 301 274 301C228.3 301 182.7 301 137 301C91.3 301 45.7 301 22.8 301L0 301Z" fill="#ef5f67"></path><path d="M0 243L22.8 243C45.7 243 91.3 243 137 244.8C182.7 246.7 228.3 250.3 274 247.2C319.7 244 365.3 234 411.2 228.3C457 222.7 503 221.3 548.8 222.3C594.7 223.3 640.3 226.7 686 230C731.7 233.3 777.3 236.7 823 235C868.7 233.3 914.3 226.7 937.2 223.3L960 220L960 301L937.2 301C914.3 301 868.7 301 823 301C777.3 301 731.7 301 686 301C640.3 301 594.7 301 548.8 301C503 301 457 301 411.2 301C365.3 301 319.7 301 274 301C228.3 301 182.7 301 137 301C91.3 301 45.7 301 22.8 301L0 301Z" fill="#e34c67"></path><path d="M0 261L22.8 260.7C45.7 260.3 91.3 259.7 137 258C182.7 256.3 228.3 253.7 274 251C319.7 248.3 365.3 245.7 411.2 246.5C457 247.3 503 251.7 548.8 253.7C594.7 255.7 640.3 255.3 686 255.2C731.7 255 777.3 255 823 252.7C868.7 250.3 914.3 245.7 937.2 243.3L960 241L960 301L937.2 301C914.3 301 868.7 301 823 301C777.3 301 731.7 301 686 301C640.3 301 594.7 301 548.8 301C503 301 457 301 411.2 301C365.3 301 319.7 301 274 301C228.3 301 182.7 301 137 301C91.3 301 45.7 301 22.8 301L0 301Z" fill="#d53867"></path><path d="M0 263L22.8 263.7C45.7 264.3 91.3 265.7 137 265.8C182.7 266 228.3 265 274 265.2C319.7 265.3 365.3 266.7 411.2 267.7C457 268.7 503 269.3 548.8 269.5C594.7 269.7 640.3 269.3 686 268.8C731.7 268.3 777.3 267.7 823 269.2C868.7 270.7 914.3 274.3 937.2 276.2L960 278L960 301L937.2 301C914.3 301 868.7 301 823 301C777.3 301 731.7 301 686 301C640.3 301 594.7 301 548.8 301C503 301 457 301 411.2 301C365.3 301 319.7 301 274 301C228.3 301 182.7 301 137 301C91.3 301 45.7 301 22.8 301L0 301Z" fill="#c62368"></path></svg>