<svg id="visual" viewBox="0 0 960 300" width="960" height="300" xmlns="http://www.w3.org/2000/svg" xmlns:xlink="http://www.w3.org/1999/xlink" version="1.1"><rect x="0" y="0" width="960" height="300" fill="#001220"></rect><path d="M0 85L20 86C40 87 80 89 120 91C160 93 200 95 240 91.7C280 88.3 320 79.7 360 76C400 72.3 440 73.7 480 75C520 76.3 560 77.7 600 82C640 86.3 680 93.7 720 96.7C760 99.7 800 98.3 840 92.8C880 87.3 920 77.7 940 72.8L960 68L960 0L940 0C920 0 880 0 840 0C800 0 760 0 720 0C680 0 640 0 600 0C560 0 520 0 480 0C440 0 400 0 360 0C320 0 280 0 240 0C200 0 160 0 120 0C80 0 40 0 20 0L0 0Z" fill="#fa7268"></path><path d="M0 77L20 76.3C40 75.7 80 74.3 120 74.2C160 74 200 75 240 74.3C280 73.7 320 71.3 360 68.3C400 65.3 440 61.7 480 62.2C520 62.7 560 67.3 600 70.5C640 73.7 680 75.3 720 74.3C760 73.3 800 69.7 840 66.5C880 63.3 920 60.7 940 59.3L960 58L960 0L940 0C920 0 880 0 840 0C800 0 760 0 720 0C680 0 640 0 600 0C560 0 520 0 480 0C440 0 400 0 360 0C320 0 280 0 240 0C200 0 160 0 120 0C80 0 40 0 20 0L0 0Z" fill="#f16367"></path><path d="M0 45L20 47.7C40 50.3 80 55.7 120 60.3C160 65 200 69 240 69.5C280 70 320 67 360 67C400 67 440 70 480 67.5C520 65 560 57 600 53.2C640 49.3 680 49.7 720 52.5C760 55.3 800 60.7 840 59.7C880 58.7 920 51.3 940 47.7L960 44L960 0L940 0C920 0 880 0 840 0C800 0 760 0 720 0C680 0 640 0 600 0C560 0 520 0 480 0C440 0 400 0 360 0C320 0 280 0 240 0C200 0 160 0 120 0C80 0 40 0 20 0L0 0Z" fill="#e85467"></path><path d="M0 37L20 36.7C40 36.3 80 35.7 120 37.8C160 40 200 45 240 47.8C280 50.7 320 51.3 360 50C400 48.7 440 45.3 480 44.2C520 43 560 44 600 44.7C640 45.3 680 45.7 720 44.5C760 43.3 800 40.7 840 38C880 35.3 920 32.7 940 31.3L960 30L960 0L940 0C920 0 880 0 840 0C800 0 760 0 720 0C680 0 640 0 600 0C560 0 520 0 480 0C440 0 400 0 360 0C320 0 280 0 240 0C200 0 160 0 120 0C80 0 40 0 20 0L0 0Z" fill="#de4467"></path><path d="M0 39L20 38.5C40 38 80 37 120 36.2C160 35.3 200 34.7 240 35C280 35.3 320 36.7 360 35.2C400 33.7 440 29.3 480 26.8C520 24.3 560 23.7 600 26.5C640 29.3 680 35.7 720 38.8C760 42 800 42 840 38.3C880 34.7 920 27.3 940 23.7L960 20L960 0L940 0C920 0 880 0 840 0C800 0 760 0 720 0C680 0 640 0 600 0C560 0 520 0 480 0C440 0 400 0 360 0C320 0 280 0 240 0C200 0 160 0 120 0C80 0 40 0 20 0L0 0Z" fill="#d23467"></path><path d="M0 22L20 19.7C40 17.3 80 12.7 120 11.2C160 9.7 200 11.3 240 13.3C280 15.3 320 17.7 360 18.8C400 20 440 20 480 20.7C520 21.3 560 22.7 600 23.7C640 24.7 680 25.3 720 22.8C760 20.3 800 14.7 840 14.3C880 14 920 19 940 21.5L960 24L960 0L940 0C920 0 880 0 840 0C800 0 760 0 720 0C680 0 640 0 600 0C560 0 520 0 480 0C440 0 400 0 360 0C320 0 280 0 240 0C200 0 160 0 120 0C80 0 40 0 20 0L0 0Z" fill="#c62368"></path></svg>