<svg id="visual" viewBox="0 0 960 100" width="960" height="100" xmlns="http://www.w3.org/2000/svg" xmlns:xlink="http://www.w3.org/1999/xlink" version="1.1"><rect x="0" y="0" width="960" height="100" fill="#001220"></rect><path d="M0 28L20 28.3C40 28.7 80 29.3 120 30C160 30.7 200 31.3 240 30.2C280 29 320 26 360 24.7C400 23.3 440 23.7 480 24.2C520 24.7 560 25.3 600 26.8C640 28.3 680 30.7 720 31.7C760 32.7 800 32.3 840 30.5C880 28.7 920 25.3 940 23.7L960 22L960 0L940 0C920 0 880 0 840 0C800 0 760 0 720 0C680 0 640 0 600 0C560 0 520 0 480 0C440 0 400 0 360 0C320 0 280 0 240 0C200 0 160 0 120 0C80 0 40 0 20 0L0 0Z" fill="#fa7268"></path><path d="M0 25L20 24.8C40 24.7 80 24.3 120 24.3C160 24.3 200 24.7 240 24.3C280 24 320 23 360 22C400 21 440 20 480 20.2C520 20.3 560 21.7 600 22.7C640 23.7 680 24.3 720 24C760 23.7 800 22.3 840 21.3C880 20.3 920 19.7 940 19.3L960 19L960 0L940 0C920 0 880 0 840 0C800 0 760 0 720 0C680 0 640 0 600 0C560 0 520 0 480 0C440 0 400 0 360 0C320 0 280 0 240 0C200 0 160 0 120 0C80 0 40 0 20 0L0 0Z" fill="#f16367"></path><path d="M0 14L20 15C40 16 80 18 120 19.7C160 21.3 200 22.7 240 22.8C280 23 320 22 360 22C400 22 440 23 480 22.2C520 21.3 560 18.7 600 17.3C640 16 680 16 720 16.8C760 17.7 800 19.3 840 19C880 18.7 920 16.3 940 15.2L960 14L960 0L940 0C920 0 880 0 840 0C800 0 760 0 720 0C680 0 640 0 600 0C560 0 520 0 480 0C440 0 400 0 360 0C320 0 280 0 240 0C200 0 160 0 120 0C80 0 40 0 20 0L0 0Z" fill="#e85467"></path><path d="M0 12L20 11.8C40 11.7 80 11.3 120 12C160 12.7 200 14.3 240 15.3C280 16.3 320 16.7 360 16.2C400 15.7 440 14.3 480 13.8C520 13.3 560 13.7 600 14C640 14.3 680 14.7 720 14.3C760 14 800 13 840 12C880 11 920 10 940 9.5L960 9L960 0L940 0C920 0 880 0 840 0C800 0 760 0 720 0C680 0 640 0 600 0C560 0 520 0 480 0C440 0 400 0 360 0C320 0 280 0 240 0C200 0 160 0 120 0C80 0 40 0 20 0L0 0Z" fill="#de4467"></path><path d="M0 12L20 11.8C40 11.7 80 11.3 120 11.2C160 11 200 11 240 11.2C280 11.3 320 11.7 360 11.2C400 10.7 440 9.3 480 8.5C520 7.7 560 7.3 600 8.2C640 9 680 11 720 12C760 13 800 13 840 11.8C880 10.7 920 8.3 940 7.2L960 6L960 0L940 0C920 0 880 0 840 0C800 0 760 0 720 0C680 0 640 0 600 0C560 0 520 0 480 0C440 0 400 0 360 0C320 0 280 0 240 0C200 0 160 0 120 0C80 0 40 0 20 0L0 0Z" fill="#d23467"></path><path d="M0 7L20 6.2C40 5.3 80 3.7 120 3.2C160 2.7 200 3.3 240 4C280 4.7 320 5.3 360 5.7C400 6 440 6 480 6.2C520 6.3 560 6.7 600 7C640 7.3 680 7.7 720 6.8C760 6 800 4 840 3.8C880 3.7 920 5.3 940 6.2L960 7L960 0L940 0C920 0 880 0 840 0C800 0 760 0 720 0C680 0 640 0 600 0C560 0 520 0 480 0C440 0 400 0 360 0C320 0 280 0 240 0C200 0 160 0 120 0C80 0 40 0 20 0L0 0Z" fill="#c62368"></path></svg>